<svg xmlns="http://www.w3.org/2000/svg">
<defs>
<font id="TheWildBreathofZelda" horiz-adv-x="1144" >
  <font-face 
    font-family="The Wild Breath of Zelda"
    font-weight="400"
    font-stretch="normal"
    units-per-em="2048"
    panose-1="2 0 5 0 0 0 0 0 0 0"
    ascent="1638"
    descent="-410"
    x-height="1432"
    cap-height="1428"
    bbox="-128 -323 1663 1675"
    underline-thickness="150"
    underline-position="-292"
    unicode-range="U+0020-007E"
  />
<missing-glyph horiz-adv-x="1501" 
d="M676 1396h32q335 0 564 -300q124 -187 124 -380v-40q0 -314 -288 -548q-194 -128 -388 -128h-32q-335 0 -564 300q-124 187 -124 380v40q0 314 288 548q194 128 388 128zM96 880h4q688 -4 1084 -4h116q-94 264 -292 364q-138 84 -296 84h-32q-268 0 -468 -228
q-88 -113 -116 -216zM664 1252q24 -28 28 -28l32 28q5 0 32 -32q-6 0 -28 -28v-4q0 -6 28 -28q0 6 28 28h4q6 0 28 -28v-4q0 -6 -28 -28h-4l-32 28q0 -2 -24 -28q28 -30 28 -36l-32 -28l-32 28l-32 -28l-28 32l28 32l-28 28l-32 -28q-5 0 -32 32l32 28l32 -28l28 32
q-6 0 -28 28q0 5 32 32zM692 1220l-28 -32l32 -28q0 2 24 28v4q0 6 -28 28zM692 1156l-28 -32l28 -24q6 0 28 28q0 6 -28 28zM320 1008h12l28 -8v-8l-8 -12q-22 4 -32 4q-16 -4 -16 -24q0 -17 20 -24q26 8 28 8l12 -16q-13 -10 -36 -16q-52 9 -52 48q8 48 44 48zM372 1008
h20q8 -1 8 -8v-28h28v36h28v-92h-28v32h-28v-32h-28v92zM476 1008h64v-24h-44v-12h44v-16q0 -8 -8 -8l-8 4l-8 -4l-20 4v-12h40q8 -1 8 -8v-16h-76v84q1 8 8 8zM600 1008q52 -7 52 -44l-8 -32q8 -1 8 -8q0 -6 -16 -16l-12 8q-22 -4 -32 -4q-33 0 -44 48q0 48 52 48z
M668 1008h12q8 -1 8 -8v-40q3 -24 12 -24h8q6 0 12 12v52l4 8l8 -4h4l8 4l4 -8v-48q-5 -40 -40 -40h-8q-36 0 -40 48v40q1 8 8 8zM764 1008h8l24 -4q8 4 12 4q8 -4 12 -4q8 4 12 4v-20q0 -8 -8 -8q-7 4 -16 4v-4l-8 4h-12v-12h44v-16q0 -8 -8 -8h-36v-12h12q4 0 4 4l8 -4h8
q4 0 4 4q8 -4 12 -4v-20h-20l-24 -4q-7 4 -20 4v-4q-8 4 -12 4v72zM852 1008l28 -4v4q48 -7 48 -32q-3 -28 -20 -28l24 -32l-8 -4h-16q-3 0 -32 32h-4v-16l4 -8l-8 -4h-24v4q0 8 4 8l-4 28l4 40h-4q4 12 8 12zM940 1004h72v-16q0 -8 -8 -8h-36v-8h40v-24h-40v-12h44v-16

<glyph glyph-name=".notdef" horiz-adv-x="1501" 
d="M676 1396h32q335 0 564 -300q124 -187 124 -380v-40q0 -314 -288 -548q-194 -128 -388 -128h-32q-335 0 -564 300q-124 187 -124 380v40q0 314 288 548q194 128 388 128zM96 880h4q688 -4 1084 -4h116q-94 264 -292 364q-138 84 -296 84h-32q-268 0 -468 -228
q-88 -113 -116 -216zM664 1252q24 -28 28 -28l32 28q5 0 32 -32q-6 0 -28 -28v-4q0 -6 28 -28q0 6 28 28h4q6 0 28 -28v-4q0 -6 -28 -28h-4l-32 28q0 -2 -24 -28q28 -30 28 -36l-32 -28l-32 28l-32 -28l-28 32l28 32l-28 28l-32 -28q-5 0 -32 32l32 28l32 -28l28 32
q-6 0 -28 28q0 5 32 32zM692 1220l-28 -32l32 -28q0 2 24 28v4q0 6 -28 28zM692 1156l-28 -32l28 -24q6 0 28 28q0 6 -28 28zM320 1008h12l28 -8v-8l-8 -12q-22 4 -32 4q-16 -4 -16 -24q0 -17 20 -24q26 8 28 8l12 -16q-13 -10 -36 -16q-52 9 -52 48q8 48 44 48zM372 1008
h20q8 -1 8 -8v-28h28v36h28v-92h-28v32h-28v-32h-28v92zM476 1008h64v-24h-44v-12h44v-16q0 -8 -8 -8l-8 4l-8 -4l-20 4v-12h40q8 -1 8 -8v-16h-76v84q1 8 8 8zM600 1008q52 -7 52 -44l-8 -32q8 -1 8 -8q0 -6 -16 -16l-12 8q-22 -4 -32 -4q-33 0 -44 48q0 48 52 48z
M668 1008h12q8 -1 8 -8v-40q3 -24 12 -24h8q6 0 12 12v52l4 8l8 -4h4l8 4l4 -8v-48q-5 -40 -40 -40h-8q-36 0 -40 48v40q1 8 8 8zM764 1008h8l24 -4q8 4 12 4q8 -4 12 -4q8 4 12 4v-20q0 -8 -8 -8q-7 4 -16 4v-4l-8 4h-12v-12h44v-16q0 -8 -8 -8h-36v-12h12q4 0 4 4l8 -4h8
q4 0 4 4q8 -4 12 -4v-20h-20l-24 -4q-7 4 -20 4v-4q-8 4 -12 4v72zM852 1008l28 -4v4q48 -7 48 -32q-3 -28 -20 -28l24 -32l-8 -4h-16q-3 0 -32 32h-4v-16l4 -8l-8 -4h-24v4q0 8 4 8l-4 28l4 40h-4q4 12 8 12zM940 1004h72v-16q0 -8 -8 -8h-36v-8h40v-24h-40v-12h44v-16
q0 -8 -8 -8h-56q-8 0 -8 8v84zM1024 1004h48q36 0 40 -48q0 -42 -64 -44h-16q-8 0 -8 8v84zM576 956q6 -20 28 -20q20 6 20 28q-8 18 -16 20h-16q-16 -6 -16 -28zM872 984v-20h20q8 0 8 8v4q0 8 -8 8h-20zM1052 980v-44h4q22 0 28 16v16q0 6 -12 12h-20zM208 680v-8
q13 -68 64 -68h40q20 10 20 32v16q-16 0 -16 20q0 40 76 40q0 5 16 8v-4q-75 -248 -96 -252h-8q-9 0 -12 20q0 7 20 44q-20 36 -52 36h-12q-64 -9 -64 -64v-8q0 -58 72 -84q21 -4 40 -4h16q125 0 164 172q24 53 84 228q-19 12 -52 12h-24q-31 0 -60 -36q-51 -22 -156 -36
q-60 -21 -60 -64zM796 460l-4 8v12q0 19 32 136q-10 40 -44 40h-28q-17 0 -64 -20v8l4 8q-16 8 -44 8h-40q-35 0 -48 -44q-64 -198 -64 -208q24 -12 68 -12q60 0 60 60q41 132 56 132q12 0 12 4q16 -6 16 -12q-36 -93 -36 -124v-8q0 -39 56 -48q40 0 108 36l-8 -24
q16 -16 56 -16q68 0 68 32q22 160 76 160h12q8 -1 8 -8v-4q0 -27 -52 -52l-4 -20q0 -104 84 -104q87 0 144 108l-16 12h-8q-35 -60 -80 -60h-8q-24 10 -24 36v16l56 36q20 37 20 56v8q0 41 -60 48q-16 0 -84 -24q0 4 -4 4q60 154 60 160q-19 12 -60 12h-36q-30 0 -40 -68
q-11 -12 -80 -236q-45 -48 -60 -48zM208 312v-4q203 -236 476 -236h32q251 0 448 204q24 28 24 32q-502 4 -748 4h-232zM516 244h40v-8h-32v-20h32v-8h-32v-16h28q8 -1 8 -8h-44v60zM580 244h20q6 0 12 -12h-4l-24 4q-8 -1 -8 -8v-8q40 -4 40 -20q-6 -20 -28 -20
q-24 8 -24 16l8 4q0 -9 20 -12l16 8q0 12 -40 20v16q0 6 12 12zM616 244h48v-8h-20v-52h-8v52h-20v8zM716 244q12 0 24 -16q0 -19 -40 -24l-4 -8q1 -8 8 -8h32v-8h-28l-20 4v4q0 28 28 28h12q0 4 4 12l-12 8h-12l-16 -12v8q4 12 24 12zM772 244h4q6 0 16 -16v-32
q-6 -16 -28 -16q-20 6 -20 28v8q0 28 28 28zM820 244v-56h12q0 -8 -8 -8h-20v8h8v44h-8v8q9 0 16 4zM840 244h36q8 -1 8 -8h-36v-16h24q8 -2 16 -20q-6 -20 -28 -20q-20 3 -20 12v8l16 -12h12q6 0 12 12q0 6 -12 12h-28v32zM752 224v-24q0 -6 12 -12h8q6 0 12 12v24
q0 6 -12 12h-8q-6 0 -12 -12z" />
    <glyph glyph-name=".null" horiz-adv-x="0" 
 />
    <glyph glyph-name=".null" horiz-adv-x="0" 
 />
    <glyph glyph-name="nonmarkingreturn" horiz-adv-x="508" 
 />
    <glyph glyph-name="space" unicode=" " horiz-adv-x="369" 
 />
    <glyph glyph-name="space" unicode="&#xa0;" horiz-adv-x="369" 
 />
    <glyph glyph-name="exclam" unicode="!" horiz-adv-x="397" 
d="M133 335h30q40 0 150 -150v-29q-120 -150 -120 -209h-30q-47 0 -179 238zM25 556q0 12 -12 12l12 23v613q0 94 -141 200l-12 24h589l-153 -153v-519q-23 -84 -23 -94v-47q0 -51 -77 -175q0 -9 -2 -29l-81 13z" />
    <glyph glyph-name="quotedbl" unicode="&#x22;" horiz-adv-x="689" 
d="M299 1225q-97 -289 -97 -342h-30q-47 0 -179 438l149 150h30q36 0 130 -123l118 119h30q40 0 150 -150v-29q-120 -350 -120 -409h-30q-42 0 -151 346z" />
    <glyph glyph-name="numbersign" unicode="#" horiz-adv-x="1037" 
d="M105 576l8 15v209q-55 -29 -111 -67l-18 353q66 -12 129 -22v40q0 94 -141 200l-12 24h489l-53 -153v-145q41 -3 80 -4q53 -3 111 0v1q-12 77 -12 160q-6 59 -6 129l24 12h418v-12l-153 -153v-97q56 13 114 29l-33 -311q-41 14 -81 26v-237q60 13 123 31l-33 -311
q-46 15 -90 29v-48q0 -94 142 -200l11 -24h-489l53 153v184q-71 10 -132 11q-24 0 -48 -2q-3 -34 -11 -105q12 -17 12 -100q6 -59 6 -129l-23 -12h-419v12l153 153v90q-50 -28 -102 -63l-18 353q57 -11 112 -19zM396 888v-232q-23 -84 -23 -94v-20q58 -5 112 -7q43 -2 90 -1
v128q24 84 24 94v47q0 38 -13 72q-83 13 -152 14q-19 0 -38 -1z" />
    <glyph glyph-name="dollar" unicode="$" horiz-adv-x="967" 
d="M368 857q31 -40 84 -60q24 -7 46 -15v452q-87 1 -130 -35v-342zM280 651q-280 127 -293 425q2 87 31 153q61 34 86 84q33 37 93 37l3 45q37 15 80 25v15q20 123 -23 174l-4 31h132l-17 -112v-93q60 6 130 6q-1 119 -13 169l-4 31h122l-17 -112v-115q62 -25 157 -62
q73 54 127 54v-516q-158 240 -284 320v-453q0 -4 -1 -9q122 -54 190 -129l-40 -99l70 61q56 -83 56 -188q6 -333 -276 -378q1 -113 1 -170q3 -48 3 -80l-8 -16h-100v16l17 111v132h-14q-61 -9 -117 -7q1 -104 1 -157q13 -48 13 -80l-8 -16h-120v16l27 111v137
q-83 19 -151 68q-73 -54 -127 -54v516q155 -234 278 -314v264q0 16 -3 16l3 31v112zM498 539q-43 41 -115 74q-12 3 -23 7v-50q0 -67 8 -124q0 -33 -4 -171q1 -44 1 -84q8 -2 16 -3q12 -1 24 -1q57 2 93 22v284q0 16 -3 16zM281 886v269q-75 -139 0 -269zM601 505v-269
q75 130 0 269z" />
    <glyph glyph-name="percent" unicode="%" 
d="M478 390l-37 -114q-39 -123 -39 -170q83 -100 106 -100v-22h-71q-26 0 -48 -11q-20 11 -47 11h-166q-52 0 -95 22q0 -22 -131 -33q-23 0 -23 21q0 11 131 112q35 0 59 105q128 386 415 862l37 69q-10 61 25 61q0 21 -23 21q27 41 27 88q-83 100 -106 100v22h71
q26 0 48 11l47 -11h196q52 0 95 -22q0 22 131 33q23 0 23 -22q0 -10 -131 -111q-35 0 -59 -105q-73 -26 -73 -70q-157 -387 -362 -747zM138 1420h30q40 0 150 -150v-29q-120 -150 -120 -209h-30q-47 0 -179 238zM857 386h30q40 0 150 -150v-29q-120 -150 -120 -209h-30
q-47 0 -179 238z" />
    <glyph glyph-name="ampersand" unicode="&#x26;" horiz-adv-x="1032" 
d="M712 819q190 12 205 62l14 -287q-30 33 -190 54q25 -176 30 -349q100 91 207 238v-516q-54 0 -147 54q-135 -53 -203 -81q-200 10 -378 49q-35 47 -71 47q-131 0 -178 273q0 112 71 238q20 0 24 -24l35 24q0 13 -12 36q70 74 179 95v12q-226 80 -226 309v71
q85 297 463 297h72l7 4v-5q140 -10 235 -78q73 54 127 54v-416q-172 236 -375 287q-232 -10 -232 -167v-95q25 -190 155 -190h90q33 0 63 2q3 71 3 148q18 -74 32 -146zM665 656q-24 3 -51 5q-304 -6 -304 -238v-48q0 -180 203 -196q118 148 152 477z" />
    <glyph glyph-name="quotesingle" unicode="'" horiz-adv-x="397" 
d="M142 1471h30q40 0 150 -150v-29q-120 -350 -120 -409h-30q-47 0 -179 438z" />
    <glyph glyph-name="parenleft" unicode="(" horiz-adv-x="610" 
d="M507 1354q-179 -75 -179 -269v-648q0 -312 216 -327l4 -207q-6 -2 -11 -3q-500 0 -567 846q0 504 358 727q10 60 60 60q72 9 136 7l3 -187q-10 1 -20 1z" />
    <glyph glyph-name="parenright" unicode=")" horiz-adv-x="610" 
d="M11 87q179 75 179 269v648q0 311 -216 327l-4 207q5 1 11 3q500 0 567 -846q0 -504 -358 -727q-10 -60 -60 -60q-72 -10 -136 -8l-3 187h20z" />
    <glyph glyph-name="asterisk" unicode="*" horiz-adv-x="805" 
d="M360 954l-11 -21l-41 -33l-28 -8q11 -33 -60 -156l-20 -16l-8 9q-55 68 -188 251q-24 9 -32 19l207 39l53 44l-21 10l-33 41l-8 28q-33 -11 -156 60l-16 20l9 8q68 56 183 168l169 -208l10 20l41 34l28 7q-11 34 60 156l20 17l8 -9q56 -69 188 -251q24 -10 33 -20
l-208 -39l-52 -42l20 -10l34 -41l7 -28q33 11 156 -60l17 -20l-10 -8q-68 -56 -196 -143q-10 -25 -20 -33l-93 163z" />
    <glyph glyph-name="plus" unicode="+" horiz-adv-x="805" 
d="M270 624l-21 -10h-53l-27 12q-12 -33 -145 -83h-26v12q0 88 13 313q-13 23 -13 36l185 -101h69l-10 21v53l12 27q-33 12 -83 145v26h12q88 0 248 15v-268l20 9h53l27 -12q12 33 145 83h26v-12q0 -88 -13 -313q13 -23 13 -36l-185 101h-67l9 -20v-53l-12 -27
q33 -12 83 -145v-26h-12q-88 0 -243 13q-23 -13 -36 -13l31 185v68z" />
    <glyph glyph-name="comma" unicode="," horiz-adv-x="397" 
d="M142 265h30q40 0 150 -150v-29q-120 -350 -120 -409h-30q-47 0 -179 438z" />
    <glyph glyph-name="hyphen" unicode="-" horiz-adv-x="805" 
d="M425 819l26 12h53l27 -12q12 33 145 83h26v-12q0 -88 -13 -413q13 -23 13 -36l-185 201h-92l-150 -16l-26 -12h-53l-27 12q-12 -33 -145 -83h-26v12q0 88 13 413q-13 23 -13 36l185 -201h92z" />
    <glyph glyph-name="hyphen" unicode="&#xad;" horiz-adv-x="805" 
d="M425 819l26 12h53l27 -12q12 33 145 83h26v-12q0 -88 -13 -413q13 -23 13 -36l-185 201h-92l-150 -16l-26 -12h-53l-27 12q-12 -33 -145 -83h-26v12q0 88 13 413q-13 23 -13 36l185 -201h92z" />
    <glyph glyph-name="period" unicode="." horiz-adv-x="397" 
d="M133 335h30q40 0 150 -150v-29q-120 -150 -120 -209h-30q-47 0 -179 238z" />
    <glyph glyph-name="slash" unicode="/" 
d="M478 390l-37 -114q-39 -123 -39 -170q83 -100 106 -100v-22h-71q-26 0 -48 -11q-20 11 -47 11h-166q-52 0 -95 22q0 -22 -131 -33q-23 0 -23 21q0 11 131 112q35 0 59 105q128 386 415 862l37 69q-10 61 25 61q0 21 -23 21q27 41 27 88q-83 100 -106 100v22h71
q26 0 48 11l47 -11h196q52 0 95 -22q0 22 131 33q23 0 23 -22q0 -10 -131 -111q-35 0 -59 -105q-73 -26 -73 -70q-157 -387 -362 -747z" />
    <glyph glyph-name="zero" unicode="0" horiz-adv-x="1195" 
d="M418 1433h179q429 0 508 -597v-149q0 -366 -209 -478q0 -140 -329 -209q-500 0 -567 746q0 404 358 627q10 60 60 60zM358 985v-448q0 -328 239 -328q149 0 179 448v149q0 448 -239 448q-179 -75 -179 -269z" />
    <glyph glyph-name="one" unicode="1" horiz-adv-x="587" 
d="M-40 1398l436 47v-689q-23 -84 -23 -94v-47q0 -51 23 -95q0 -25 -12 -129q12 -177 12 -260q106 -59 106 -129l-23 -12h-519v12l153 153v401q0 12 -12 12l12 23v583q0 94 -141 200z" />
    <glyph glyph-name="two" unicode="2" horiz-adv-x="981" 
d="M660 1350q60 0 93 -37q25 -50 86 -84q29 -66 31 -153q-15 -349 -396 -463q-195 -88 -174 -243l-3 -178l155 -5q12 0 24 1q157 18 379 354v-516q-54 0 -127 54q-145 -104 -355 -72l-384 -3l7 388q0 105 56 188l70 -61l-40 99q102 112 323 178q157 61 126 294
q1 161 -210 141h-4v3q-142 -60 -330 -345v516q54 0 127 -54q135 53 203 81l34 8q186 2 306 -46z" />
    <glyph glyph-name="three" unicode="3" horiz-adv-x="1032" 
d="M365 815h90q130 0 155 190v95q0 157 -232 167q-203 -51 -375 -387v516q54 0 127 -54q95 68 235 78v5l7 -4h72q378 0 463 -297v-71q0 -229 -226 -309v-12q109 -21 179 -95q-12 -23 -12 -36l35 -24q4 24 24 24q71 -126 71 -238q-47 -273 -178 -273q-36 0 -71 -47
q-178 -39 -378 -49q-68 28 -203 81q-93 -54 -147 -54v516q208 -285 388 -358q280 -16 280 196v48q0 232 -304 238q-77 -23 -117 -67l14 287q18 -62 103 -66z" />
    <glyph glyph-name="four" unicode="4" horiz-adv-x="1079" 
d="M-53 1433h71q12 0 12 -12l24 12h426l-131 -154v-35q0 -161 -23 -260q23 -38 23 -166l24 12h237l23 -12v461l-130 154h580q0 -12 -154 -154v-130q0 -56 -35 -83q35 -100 35 -142v-402q0 -23 -35 -23q35 -391 71 -391l82 -71q-17 -47 -35 -47h-355q-42 0 -118 35v24
q23 0 94 95v497h-284l-260 -24q-23 94 -23 142l11 83q-23 0 -23 23v379q0 43 -107 142v47z" />
    <glyph glyph-name="five" unicode="5" horiz-adv-x="967" 
d="M657 47q-120 -48 -306 -46l-34 8q-68 28 -203 81q-73 -54 -127 -54v516q188 -285 330 -345v3h4q211 -20 210 141q31 233 -126 294q-221 66 -323 178l40 99l-70 -61q-56 83 -56 188l-7 388l384 -3q210 32 355 -72q73 54 127 54v-516q-222 336 -379 354q-12 1 -24 1
l-155 -5l3 -178q-21 -155 174 -243q381 -114 396 -463q-2 -88 -31 -154q-61 -33 -86 -83q-33 -37 -93 -37z" />
    <glyph glyph-name="six" unicode="6" horiz-adv-x="1065" 
d="M324 658q-2 -67 -2 -142q68 -261 176 -322q209 28 209 230q0 233 -234 233h-146zM337 843q39 2 136 2q527 0 527 -397q0 -81 -82 -208q-114 -212 -485 -239q-370 21 -433 732q99 678 456 678l110 27q51 0 256 -81q73 54 127 54v-516q-237 360 -401 360q-169 0 -211 -412z
" />
    <glyph glyph-name="seven" unicode="7" horiz-adv-x="1004" 
d="M119 -19h-152v30q110 146 141 211l136 343q44 58 102 93q-8 22 -53 31l195 503v28h-214q-255 -366 -274 -366v579q222 0 450 -29q149 24 248 28v-91l37 92h210v-30q-110 -146 -141 -211l-417 -989l81 -209q-131 -13 -349 -13z" />
    <glyph glyph-name="eight" unicode="8" horiz-adv-x="1079" 
d="M449 816v4h49q90 0 115 190v95q0 136 -134 161v-1q-157 -19 -157 -164v-95q25 -190 115 -190h12zM487 1426q338 0 423 -297v-71q0 -229 -226 -309v-12q109 -21 179 -95q-12 -23 -12 -36l35 -24q4 24 24 24q71 -126 71 -238q-47 -273 -178 -273q-36 0 -71 -47
q-138 -30 -235 -41v-8q-156 15 -264 45l-71 47q-131 0 -178 273q0 112 71 238l47 36q70 74 149 95v12q-226 80 -226 309q29 373 462 372zM444 167q228 14 228 213v48q0 200 -186 232q-193 -21 -193 -236v-48q0 -181 151 -209z" />
    <glyph glyph-name="nine" unicode="9" horiz-adv-x="1046" 
d="M626 781q2 67 2 142q-68 261 -176 322q-209 -28 -209 -230q0 -233 234 -233h146zM613 596q-39 -2 -136 -2q-527 0 -527 397q0 81 82 208q114 212 485 239q370 -21 433 -732q-99 -678 -456 -678l-110 -27q-51 0 -256 81q-73 -54 -127 -54v516q237 -360 401 -360
q169 0 211 412z" />
    <glyph glyph-name="colon" unicode=":" horiz-adv-x="397" 
d="M133 335h30q40 0 150 -150v-29q-120 -150 -120 -209h-30q-47 0 -179 238zM133 1024h30q40 0 150 -150v-29q-120 -150 -120 -209h-30q-47 0 -179 238z" />
    <glyph glyph-name="semicolon" unicode=";" horiz-adv-x="415" 
d="M151 265h30q40 0 150 -150v-29q-120 -350 -120 -409h-30q-47 0 -179 438zM142 1024h30q40 0 150 -150v-29q-120 -150 -120 -209h-30q-47 0 -179 238z" />
    <glyph glyph-name="semicolon" unicode="&#x37e;" horiz-adv-x="415" 
d="M151 265h30q40 0 150 -150v-29q-120 -350 -120 -409h-30q-47 0 -179 438zM142 1024h30q40 0 150 -150v-29q-120 -150 -120 -209h-30q-47 0 -179 238z" />
    <glyph glyph-name="less" unicode="&#x3c;" horiz-adv-x="610" 
d="M507 1354q-179 -75 -179 -269v-648q0 -312 216 -327l4 -207q-6 -2 -11 -3q-500 0 -567 846q0 504 358 727q10 60 60 60q72 9 136 7l3 -187q-10 1 -20 1z" />
    <glyph glyph-name="equal" unicode="=" horiz-adv-x="805" 
d="M425 986l26 12h53l27 -12q12 33 145 83h26v-12q0 -88 -13 -413q13 -23 13 -36l-185 201h-92l-150 -16l-26 -12h-53l-27 12q-12 -33 -145 -83h-26v12q0 88 13 413q-13 23 -13 36l185 -201h92zM421 513l26 12h53l27 -12q12 33 145 83h26v-12q0 -88 -13 -413q13 -23 13 -36
l-185 201h-92l-150 -16l-26 -12h-53l-27 12q-12 -33 -145 -83h-26v12q0 88 13 413q-13 23 -13 36l185 -201h92z" />
    <glyph glyph-name="greater" unicode="&#x3e;" horiz-adv-x="610" 
d="M11 87q179 75 179 269v648q0 311 -216 327l-4 207q5 1 11 3q500 0 567 -846q0 -504 -358 -727q-10 -60 -60 -60q-72 -10 -136 -8l-3 187h20z" />
    <glyph glyph-name="question" unicode="?" horiz-adv-x="958" 
d="M122 581l70 -61l-40 99q102 112 263 178q157 61 126 294q1 161 -210 141h-4v3q-142 -60 -330 -345v516q54 0 127 -54q135 53 203 81l34 8q186 2 306 -46l3 -45q60 0 93 -37q25 -50 86 -84q29 -66 31 -153q-15 -349 -396 -463q-112 -77 -116 -207l-301 7q4 93 55 168z
M180 280h30q40 0 150 -150v-29q-120 -150 -120 -209h-30q-47 0 -179 238z" />
    <glyph glyph-name="at" unicode="@" horiz-adv-x="1195" 
d="M422 1201h179q429 0 508 -421v-106q0 -258 -209 -337q0 -99 -329 -147q-500 0 -567 527q0 285 358 442q10 42 60 42zM362 866v-273q0 -200 239 -200q149 0 179 273v91q0 273 -239 273q-179 -46 -179 -164zM537 896h30q40 0 150 -150v-29q-120 -150 -120 -209h-30
q-47 0 -179 238z" />
    <glyph glyph-name="A" unicode="A" 
d="M403 1428h270q106 -474 164 -692l-11 -23v-24q0 -11 11 -11l-11 -24v-47q0 -47 82 -152q58 -328 93 -328q129 -107 129 -118q0 -23 -23 -23q-129 12 -129 35q-43 -23 -94 -23h-164q-26 0 -47 -12q-20 12 -47 12h-70v23q23 0 105 106q0 49 -23 117q23 0 23 23
q-35 0 -58 164h-246q-71 -276 -71 -316q15 0 94 -94v-23h-117q-49 0 -94 -12q-45 12 -94 12h-117v23q158 108 199 328l235 927v11q-94 77 -94 106q77 35 105 35zM486 947q-71 -271 -71 -328q47 0 47 -47l94 59l-59 316h-11z" />
    <glyph glyph-name="B" unicode="B" horiz-adv-x="1106" 
d="M-32 1438h12q188 0 440 -24l11 24l24 -12h72q378 0 463 -297v-71q0 -229 -226 -309v-12q109 -21 179 -95q-12 -23 -12 -36l35 -24q4 24 24 24q71 -126 71 -238q-47 -273 -178 -273q-36 0 -71 -47q-221 -48 -440 -48h-345q-23 0 -23 24q0 16 118 119v475q0 50 36 131
l-24 226q24 48 24 71q-36 59 -36 95v154l-154 131v12zM431 1272v-452h107q130 0 155 190v95q0 167 -262 167zM431 666v-250q0 -24 -23 -24q0 -12 12 -35q-12 -82 -12 -131q17 0 35 -60q309 0 309 214v48q0 238 -321 238z" />
    <glyph glyph-name="C" unicode="C" horiz-adv-x="1000" 
d="M783 1361q73 54 127 54v-516q-222 336 -379 359v-5q-12 1 -24 1q-179 -75 -179 -269v-448q0 -328 239 -328h4v-3q142 60 330 345v-516q-54 0 -127 54q-135 -53 -203 -81l-34 -8q-500 0 -567 746q0 404 358 627q10 60 60 60q250 32 395 -72z" />
    <glyph glyph-name="D" unicode="D" horiz-adv-x="1102" 
d="M96 1433h217q437 0 595 -303q0 -54 95 -268q14 -121 14 -140q-45 -489 -217 -489q-106 -151 -122 -151q-220 -82 -420 -82q-142 12 -311 12h-27v11l149 140v93l13 140l28 -12h13v12q-54 127 -54 163v58q0 312 27 466q-27 280 -122 280v23q90 47 122 47zM367 1247l13 -24
v-1025h14q238 0 298 419v140q0 12 13 12l-13 23v47q-48 396 -244 396z" />
    <glyph glyph-name="E" unicode="E" horiz-adv-x="1014" 
d="M-50 1433h224q66 -3 66 -24q73 12 106 12q85 0 198 -23q8 35 105 35h264q0 -24 13 -24l-13 -23v-437l13 -83l-26 -11q-206 394 -238 401h-237v-437l26 12h53l27 -12q12 33 145 83h26v-12q0 -88 -13 -413q13 -23 13 -36l-185 201h-92v-472q10 0 79 -12q136 12 158 24
q0 -12 14 -12q62 153 132 153v12q0 40 -14 59q53 205 119 248q0 -106 13 -106l-13 -24v-484l13 -23l-26 -12h-264q-13 0 -13 -12l-27 12h-171l-66 12v-12l-26 12q-56 0 -383 -24l-13 24q0 11 158 141v331q0 229 40 401q-40 126 -40 213v189l-145 129v24z" />
    <glyph glyph-name="F" unicode="F" horiz-adv-x="1004" 
d="M-42 1433h152q260 0 397 -61q274 61 396 61v-579q-19 0 -274 366h-214v-427q153 61 153 91q122 -46 122 -91v-336q-158 153 -275 153v-336q0 -110 122 -244l-152 -30h-427v30l122 153v396q0 246 30 580q-7 52 -152 244v30z" />
    <glyph glyph-name="G" unicode="G" horiz-adv-x="1097" 
d="M566 1438q51 0 256 -81q73 54 127 54v-516q-237 360 -401 360q-226 0 -226 -739q89 -340 244 -340q108 0 108 150v298q0 70 -126 136v27h456q37 -9 37 -54l-92 -55v-678h-18q-31 0 -109 54q-67 -54 -147 -54h-54q-41 0 -73 27q-32 -27 -73 -27h-19q-391 0 -456 733
q99 678 456 678z" />
    <glyph glyph-name="H" unicode="H" horiz-adv-x="1148" 
d="M-3 1433h71q12 0 12 -12l24 12h426l-131 -154v-35q0 -161 -23 -260q23 -38 23 -166l24 12h237l23 -12v461l-130 154h580q0 -12 -154 -154v-130q0 -56 -35 -83q35 -100 35 -142v-402q0 -23 -35 -23q35 -391 71 -391l82 -71q-17 -47 -35 -47h-355q-42 0 -118 35v24
q23 0 94 95v497h-284v-119q-35 -133 -35 -201q35 -90 47 -201q16 0 119 -118v-12h-580v24q154 96 154 165v213q0 12 12 12q0 12 -12 12l35 201q-23 94 -23 142l11 83q-23 0 -23 23v379q0 43 -107 142v47z" />
    <glyph glyph-name="I" unicode="I" horiz-adv-x="587" 
d="M-40 1428h589l-153 -153v-519q-23 -84 -23 -94v-47q0 -51 23 -95q0 -25 -12 -129q12 -177 12 -260q106 -59 106 -129l-23 -12h-519v12l153 153v401q0 12 -12 12l12 23v613q0 94 -141 200z" />
    <glyph glyph-name="J" unicode="J" horiz-adv-x="912" 
d="M755 821l13 -72q4 -36 4 -78q-11 -676 -411 -676l-34 8q-68 28 -203 81q-73 -54 -127 -54v516q188 -285 330 -345v3h4q139 0 139 328v296l25 -1q-3 43 -23 80q0 25 12 129q-12 177 -12 260q-106 59 -106 129l24 12h518v-12l-153 -153v-401q0 -12 12 -12l-12 -23v-15z" />
    <glyph glyph-name="K" unicode="K" 
d="M346 341q8 -136 8 -206q106 -59 106 -129l-23 -12h-519v12l153 153v401q0 12 -12 12l12 23v613q0 94 -141 200l-12 24h589l-153 -153v-519q-23 -84 -23 -94v-43q32 42 170 274q19 36 49 88q36 60 87 141q95 150 95 188q-15 0 -85 89v22h139q49 0 124 11q47 -11 96 -11
h118v-22q-159 -102 -201 -217q-150 -228 -261 -401q163 -308 251 -574q24 -105 59 -105q131 -101 131 -112q0 -21 -23 -21q-131 11 -131 33q-43 -22 -95 -22h-166q-27 0 -47 -11q-22 11 -48 11h-71v22q23 0 106 100q0 47 -39 170l-37 114q-33 58 -65 117q-5 8 -9 17
q-65 -94 -132 -183z" />
    <glyph glyph-name="L" unicode="L" horiz-adv-x="1023" 
d="M20 1433h623q0 -14 -172 -152v-141q-27 0 -27 -12q27 -417 27 -516v-410q4 -23 26 -23h146q33 13 252 562h27v-504q-17 -117 -53 -117l66 -106q-26 -11 -40 -11q-242 0 -345 -12q-196 12 -451 12h-119v11l172 153v70q0 80 14 141q-14 61 -14 141v11q0 12 -13 12
q13 18 27 152q-14 267 -14 505v35q0 11 -13 11l13 24q-1 21 -119 105l-40 47z" />
    <glyph glyph-name="M" unicode="M" horiz-adv-x="1338" 
d="M404 717q0 39 -55 82v-691q129 -55 129 -110h-530q0 55 129 110v1187l-147 83v55h239q150 0 257 -276l221 -338v-1q31 31 31 60q281 427 500 797l37 -28l-19 -192v-604l19 -138q-19 0 -19 -83v-220q0 -353 147 -353v-55h-537v55q110 83 128 83v656l-234 -358
q-26 -66 -97.5 10t-198.5 269z" />
    <glyph glyph-name="N" unicode="N" horiz-adv-x="1051" 
d="M-70 1433h239q150 0 257 -276l234 -358v496q-18 0 -128 83v55h537v-55q-147 0 -147 -193v-220q0 -83 19 -83l-19 -138v-604l19 -192l-37 -28q-219 370 -500 797q0 39 -55 82v-691q129 -55 129 -110h-530q0 55 129 110v1187l-147 83v55z" />
    <glyph glyph-name="O" unicode="O" horiz-adv-x="1195" 
d="M418 1433h179q429 0 508 -597v-149q0 -366 -209 -478q0 -140 -329 -209q-500 0 -567 746q0 404 358 627q10 60 60 60zM358 985v-448q0 -328 239 -328q149 0 179 448v149q0 448 -239 448q-179 -75 -179 -269zM537 896h30q40 0 150 -150v-29q-120 -150 -120 -209h-30
q-47 0 -179 238z" />
    <glyph glyph-name="P" unicode="P" horiz-adv-x="1069" 
d="M377 592l11 -58v-374q108 -129 141 -129v-23h-134q-24 0 -24 35q-60 -35 -392 -47q-23 12 -35 12v11l152 152v255l12 70q-12 20 -12 59v680q0 61 -152 187v12h140q103 0 257 -12q62 12 117 12q527 0 527 -397q0 -81 -82 -208q-119 -220 -515 -250q-7 9 -11 13zM400 779
h12q280 0 280 234q0 233 -234 233h-46l-24 13v-441l-11 -26z" />
    <glyph glyph-name="Q" unicode="Q" horiz-adv-x="1195" 
d="M537 896h30q40 0 150 -150v-29q-120 -150 -120 -209h-30q-47 0 -179 238zM358 985v-448q0 -328 239 -328q149 0 179 448v149q0 448 -239 448q-179 -75 -179 -269zM647 19q-37 -10 -80 -19q-500 0 -567 746q0 404 358 627q10 60 60 60h179q429 0 508 -597v-149
q0 -366 -209 -478q0 -48 -38 -87q144 -204 182 -257q148 -59 198 -129l-15 -12h-519l-8 12l44 153z" />
    <glyph glyph-name="R" unicode="R" horiz-adv-x="1069" 
d="M-56 1434h140q123 0 257 -12q62 12 117 12q527 0 527 -397q0 -81 -82 -188q-115 -175 -234 -175v-12q140 -237 140 -315q94 -161 234 -269q0 -24 23 -24v-11q0 -32 -140 -47q-110 12 -210 12q-300 545 -339 584l11 -58v-374q108 -129 141 -129v-23h-234q-24 0 -24 35
q-60 -35 -292 -47q-23 12 -35 12v11l152 152v655l12 70q-12 20 -12 59v280q0 61 -152 187v12zM377 1247l11 -23v-398l24 12h46q234 0 234 210q0 211 -280 211h-12z" />
    <glyph glyph-name="S" unicode="S" horiz-adv-x="967" 
d="M200 1395q120 48 306 46l34 -8q68 -28 203 -81q73 54 127 54v-516q-188 285 -330 345v-3h-4q-211 20 -210 -141q-31 -233 126 -294q221 -66 323 -178l-40 -99l70 61q56 -83 56 -188q7 -388 -377 -385q-210 -32 -355 72q-73 -54 -127 -54v516q222 -336 379 -354
q12 -1 24 -1q175 5 152 183q21 155 -174 243q-381 114 -396 463q2 87 31 153q61 34 86 84q33 37 93 37z" />
    <glyph glyph-name="T" unicode="T" horiz-adv-x="1106" 
d="M13 1433q66 0 113 -12q317 12 504 12h278l63 -70q4 23 25 23l13 -23v-506h-26q-63 139 -63 188v47q-63 0 -126 165h-138v-599q0 -65 -13 -165q13 -20 13 -47q-13 -159 -13 -223q0 -103 177 -200v-23h-631v12q151 104 151 164q0 27 13 47q-13 129 -13 223v12q0 196 38 470
q-38 211 -38 329h-126q-45 -45 -201 -400h-13v494z" />
    <glyph glyph-name="U" unicode="U" horiz-adv-x="1134" 
d="M718 719v560l-130 154h580q0 -12 -154 -154v-130q0 -56 -35 -83q35 -100 35 -142l-11 -264q-7 -343 -182 -451q0 -140 -287 -209q-427 0 -491 663q46 98 13 207v379q0 43 -107 142v47h71q12 0 12 -12l24 12h426l-131 -154v-35q0 -161 -23 -260q19 -31 22 -270h2v-182
q0 -328 208 -328q130 0 156 448v62h2z" />
    <glyph glyph-name="V" unicode="V" 
d="M812 1315q-15 0 -95 95v23h119q49 0 94 12q47 -12 96 -12h118v-23q-159 -109 -201 -332l-237 -938v-11q94 -78 94 -108q-78 -35 -106 -35h-274q-106 480 -165 700l12 24v24q0 11 -12 11l12 24v48q0 47 -83 154q-60 332 -95 332q-131 108 -131 119q0 23 23 23
q131 -12 131 -35q43 23 95 23h166q27 0 47 12q22 -12 48 -12h71v-23q-23 0 -106 -107q0 -50 23 -119q-23 0 -23 -23q35 0 59 -166l47 -202l60 -320h12q71 274 136 537.5t65 304.5z" />
    <glyph glyph-name="W" unicode="W" horiz-adv-x="1733" 
d="M-30 1428h528q-13 -34 -86 -110q73 -206 73 -246l-24 12h-13q65 -161 135 -282q0 -30 25 -110h12l184 638q-11 0 -73 86v12h282v-49q0 -61 -25 -61q49 -119 49 -172h-24q71 -69 172 -454h12q0 91 172 478q12 0 12 25h-25q0 24 25 123q0 13 -74 98v12h356v-12
q-110 -152 -221 -516q-18 0 -37 -49q13 -23 13 -36q0 -36 -74 -148q0 -117 -208 -699h-13q-98 300 -135 503q-41 0 -135 344h-12q-82 -295 -147 -369l-12 -24l12 -61q-22 -78 -111 -221l13 -62q-25 -110 -49 -110l-319 982q12 23 12 36l-37 25l37 61q-49 62 -49 98h-12
l-25 -12q0 130 -184 245v25z" />
    <glyph glyph-name="X" unicode="X" 
d="M487 507q-119 -198 -137 -255q-40 -128 -40 -166q15 0 85 -89v-22h-169q-49 0 -94 -11q-47 11 -96 11h-118v22q159 102 201 217l270 482q-108 216 -199 441q0 44 -73 70q-24 105 -59 105q-131 101 -131 111q0 22 23 22q131 -11 131 -33q43 22 95 22h196l47 11
q22 -11 48 -11h71v-22q-23 0 -106 -100q0 -47 27 -88q-23 0 -23 -21q35 0 25 -61l37 -69q27 -45 52 -88q36 60 87 141q95 150 95 188q-15 0 -85 89v22h139q49 0 124 11q47 -11 96 -11h118v-22q-159 -102 -201 -217q-150 -228 -261 -401q163 -308 251 -574q24 -105 59 -105
q131 -101 131 -112q0 -21 -23 -21q-131 11 -131 33q-43 -22 -95 -22h-166q-27 0 -47 -11q-22 11 -48 11h-71v22q23 0 106 100q0 47 -39 170l-37 114q-33 58 -65 117z" />
    <glyph glyph-name="Y" unicode="Y" 
d="M603 -6h-350l153 153v276q-96 251 -197 563l12 24v24q0 11 -12 11l12 24v48q0 47 -73 74q-24 112 -59 112q-131 108 -131 119q0 23 23 23q131 -12 131 -35q43 23 95 23h166q27 0 47 12q22 -12 48 -12h71v-23q-23 0 -106 -107q0 -50 23 -119q-23 0 -23 -23q35 0 69 -146
l37 -122l30 -130h12q71 84 136 297.5t65 254.5q-15 0 -85 95v23h139q49 0 94 12q47 -12 96 -12h118v-23q-159 -109 -201 -232l-262 -625l8 -335q0 -94 142 -200l11 -24h-205l-32 76z" />
    <glyph glyph-name="Z" unicode="Z" horiz-adv-x="1004" 
d="M735 1433h210v-30q-110 -146 -141 -211l-417 -989q93 15 251 -9q255 366 274 366v-579q-122 0 -396 61q-137 -61 -397 -61h-152v30q110 146 141 211l136 343q44 58 102 93q-8 22 -53 31l195 503v28h-214q-255 -366 -274 -366v579q222 0 450 -29q149 24 248 28v-91z" />
    <glyph glyph-name="bracketleft" unicode="[" horiz-adv-x="610" 
d="M507 1354q-179 -75 -179 -269v-648q0 -312 216 -327l4 -207q-6 -2 -11 -3q-500 0 -567 846q0 504 358 727q10 60 60 60q72 9 136 7l3 -187q-10 1 -20 1z" />
    <glyph glyph-name="backslash" unicode="\" 
d="M190 1137q0 44 -73 70q-24 105 -59 105q-131 101 -131 111q0 22 23 22q131 -11 131 -33q43 22 95 22h196l47 11q22 -11 48 -11h71v-22q-23 0 -106 -100q0 -47 27 -88q-23 0 -23 -21q35 0 25 -61l37 -69q287 -476 415 -862q24 -105 59 -105q131 -101 131 -112
q0 -21 -23 -21q-131 11 -131 33q-43 -22 -95 -22h-166q-27 0 -47 -11q-22 11 -48 11h-71v22q23 0 106 100q0 47 -39 170l-37 114q-205 360 -362 747z" />
    <glyph glyph-name="bracketright" unicode="]" horiz-adv-x="610" 
d="M11 87q179 75 179 269v648q0 311 -216 327l-4 207q5 1 11 3q500 0 567 -846q0 -504 -358 -727q-10 -60 -60 -60q-72 -10 -136 -8l-3 187h20z" />
    <glyph glyph-name="asciicircum" unicode="^" horiz-adv-x="397" 
d="M147 813h30q40 0 150 -150v-29q-120 -350 -120 -409h-30q-47 0 -179 438z" />
    <glyph glyph-name="underscore" unicode="_" horiz-adv-x="805" 
d="M416 170l26 12h53l27 -12q12 33 145 83h26v-12q0 -88 -13 -413q13 -23 13 -36l-185 201h-92l-150 -16l-26 -12h-53l-27 12q-12 -33 -145 -83h-26v12q0 88 13 413q-13 23 -13 36l185 -201h92z" />
    <glyph glyph-name="grave" unicode="`" horiz-adv-x="397" 
d="M147 813h30q40 0 150 -150v-29q-120 -350 -120 -409h-30q-47 0 -179 438z" />
    <glyph glyph-name="a" unicode="a" horiz-adv-x="910" 
d="M314 1432h216q84 -315 131 -461l-9 -15v-16q0 -8 9 -8l-9 -16v-31q0 -31 65 -101q47 -219 75 -219q103 -71 103 -78q0 -16 -18 -16q-103 8 -103 23q-35 -15 -75 -15h-132q-21 0 -37 -8q-17 8 -38 8h-56v15q19 0 84 71q0 33 -18 78q18 0 18 16q-28 0 -47 109h-197
q-56 -184 -56 -211q12 0 75 -63v-15h-94q-38 0 -75 -8q-36 8 -75 8h-93v15q126 72 159 219l188 618v8q-75 51 -75 70q62 23 84 23zM380 1112q-57 -181 -57 -219q38 0 38 -31l75 39l-47 211h-9z" />
    <glyph glyph-name="b" unicode="b" horiz-adv-x="888" 
d="M-32 1439h9q151 0 352 -16l9 16l20 -8h57q302 0 370 -198v-48q0 -152 -180 -206v-7q86 -14 142 -64q-9 -15 -9 -24l28 -15q3 15 19 15q57 -84 57 -158q-38 -182 -142 -182q-29 0 -57 -32q-177 -32 -352 -32h-276q-19 0 -19 16q0 11 95 79v317q0 34 29 87l-19 151
q19 32 19 48q-29 39 -29 63v103l-123 87v8zM338 1328v-301h86q104 0 124 127v63q0 111 -210 111zM338 924v-166q0 -16 -19 -16q0 -9 10 -24q-10 -54 -10 -87q14 0 29 -40q247 0 247 143v32q0 158 -257 158z" />
    <glyph glyph-name="c" unicode="c" horiz-adv-x="812" 
d="M620 1388q59 36 102 36v-344q-177 224 -303 239v-3h-19q-144 -50 -144 -179v-299q0 -218 192 -218h3v-2q113 39 264 230v-344q-43 0 -102 36l-162 -54q-14 -3 -27 -6q-400 0 -454 498q0 269 286 418q8 40 48 40q200 21 316 -48z" />
    <glyph glyph-name="d" unicode="d" horiz-adv-x="882" 
d="M60 1436h174q350 0 476 -202q0 -36 76 -179q11 -80 11 -93q-36 -326 -173 -326q-85 -101 -98 -101q-176 -55 -336 -55q-114 8 -249 8h-21v8l119 93v62l10 93l22 -7h11v7q-43 85 -43 109v39q0 207 21 311q-21 186 -97 186v16q72 31 97 31zM277 1311l11 -15v-684h11
q190 0 238 280v93q0 8 11 8l-11 15v32q-38 264 -195 264z" />
    <glyph glyph-name="e" unicode="e" horiz-adv-x="816" 
d="M-52 1436h179q53 -2 53 -16q58 8 84 8q68 0 158 -16q7 24 85 24h211q0 -16 10 -16l-10 -16v-291l10 -55l-21 -8q-164 263 -190 268h-189v-292l21 8h42l21 -8q10 23 116 56h21v-8q0 -59 -10 -276q10 -15 10 -23l-148 133h-73v-314q7 0 63 -8q108 8 126 15q0 -7 11 -7
q50 102 106 102v8q0 26 -11 39q42 136 95 165q0 -70 10 -70l-10 -16v-323l10 -16l-21 -7h-211q-10 0 -10 -8l-21 8h-137l-53 7v-7l-21 7q-45 0 -306 -15l-11 15q0 8 127 95v220q0 153 31 268q-31 84 -31 141v126l-116 87v16z" />
    <glyph glyph-name="f" unicode="f" horiz-adv-x="815" 
d="M-42 1436h122q208 0 317 -41q220 41 317 41v-387q-15 0 -219 244h-171v-284q122 40 122 61q98 -31 98 -61v-224q-126 102 -220 102v-224q0 -73 98 -162l-122 -21h-342v21l98 101v265q0 163 24 386q-6 35 -122 162v21z" />
    <glyph glyph-name="g" unicode="g" horiz-adv-x="888" 
d="M452 1439q41 0 205 -54q58 36 102 36v-344q-190 240 -321 240q-181 0 -181 -493q72 -227 195 -227q87 0 87 100v199q0 47 -101 91v18h365q29 -6 29 -36l-73 -36v-453h-15q-25 0 -87 37q-54 -37 -117 -37h-44q-33 0 -58 18q-26 -18 -59 -18h-14q-313 0 -365 489
q79 452 365 452z" />
    <glyph glyph-name="h" unicode="h" horiz-adv-x="911" 
d="M-13 1436h57q10 0 10 -8l19 8h340l-104 -103v-23q0 -107 -19 -174q19 -25 19 -110l19 8h189l19 -8v307l-104 103h464q0 -8 -123 -103v-87q0 -37 -29 -55q29 -67 29 -94v-268q0 -16 -29 -16q29 -260 57 -260l66 -48q-14 -31 -28 -31h-284q-34 0 -95 23v16q19 0 76 63v331
h-227v-78q-28 -89 -28 -135q28 -60 38 -134q12 0 94 -78v-8h-463v15q123 65 123 111v142q0 8 9 8q0 8 -9 8l28 134q-19 62 -19 94l9 55q-18 0 -18 16v253q0 28 -86 94v32z" />
    <glyph glyph-name="i" unicode="i" horiz-adv-x="469" 
d="M-40 1432h471l-122 -102v-346q-19 -56 -19 -62v-32q0 -34 19 -63q0 -17 -10 -86q10 -118 10 -173q85 -39 85 -86l-19 -8h-415v8l122 102v267q0 8 -9 8l9 15v409q0 62 -113 134z" />
    <glyph glyph-name="j" unicode="j" horiz-adv-x="730" 
d="M603 1028l11 -48q3 -24 3 -52q-9 -451 -329 -451q-14 3 -27 5q-55 19 -163 54q-58 -36 -101 -36v344q150 -190 264 -230v2h3q111 0 111 219v197h20q-2 28 -18 53q0 17 9 86q-9 118 -9 173q-85 40 -85 86l19 8h415v-8l-123 -102v-267q0 -8 10 -8l-10 -15v-10z" />
    <glyph glyph-name="k" unicode="k" horiz-adv-x="903" 
d="M260 707q7 -90 7 -137q85 -39 85 -86l-19 -8h-415v8l123 102v268q0 8 -10 8l10 15v409q0 62 -113 133l-10 16h471l-122 -102v-346q-18 -56 -18 -63v-28q25 28 136 182q15 24 39 59q29 40 69 94q76 100 76 125q-12 0 -68 60v14h112q39 0 99 8q37 -8 77 -8h94v-14
q-127 -68 -161 -145q-120 -152 -209 -267q131 -206 201 -383q19 -70 47 -70q105 -67 105 -75q0 -14 -18 -14q-105 8 -105 22q-34 -14 -76 -14h-133q-21 0 -37 -8q-18 8 -39 8h-57v14q19 0 85 67q0 31 -31 113l-30 76l-52 78q-3 6 -7 12q-52 -63 -106 -123z" />
    <glyph glyph-name="l" unicode="l" horiz-adv-x="832" 
d="M12 1436h498q0 -10 -138 -102v-94q-21 0 -21 -8q21 -277 21 -343v-274q4 -16 22 -16h116q27 9 202 376h21v-337q-13 -78 -42 -78l53 -70q-21 -8 -32 -8q-194 0 -276 -8q-157 8 -361 8h-95v8l138 102v46q0 54 10 94q-10 41 -10 94v8q0 8 -11 8q11 11 21 101
q-10 178 -10 336v24q0 8 -11 8l11 15q-1 14 -96 71l-32 31z" />
    <glyph glyph-name="m" unicode="m" horiz-adv-x="1055" 
d="M309 958q0 26 -44 55v-461q103 -36 103 -73h-424q0 37 103 73v792l-117 55v37h191q120 0 205 -184l177 -226v0q25 20 25 40q225 284 400 531l30 -19l-16 -128v-402l16 -92q-16 0 -16 -56v-146q0 -236 118 -236v-36h-430v36q88 56 103 56v437l-187 -239q-21 -44 -78 7
t-159 179z" />
    <glyph glyph-name="n" unicode="n" horiz-adv-x="824" 
d="M-70 1436h191q120 0 206 -184l187 -239v331q-14 0 -103 55v37h431v-37q-118 0 -118 -129v-147q0 -55 15 -55l-15 -92v-402l15 -129l-30 -18q-175 247 -399 531q0 27 -44 55v-461q102 -37 102 -73h-423q0 36 103 73v792l-118 55v37z" />
    <glyph glyph-name="o" unicode="o" horiz-adv-x="974" 
d="M334 1436h144q343 0 406 -398v-100q0 -244 -167 -318q0 -94 -263 -140q-400 0 -454 498q0 269 287 418q7 40 47 40zM287 1137v-298q0 -219 191 -219q119 0 143 298v100q0 298 -191 298q-143 -50 -143 -179zM430 1077h24q32 0 119 -99v-20q-95 -100 -95 -139h-24
q-38 0 -144 159z" />
    <glyph glyph-name="p" unicode="p" horiz-adv-x="861" 
d="M290 875l9 -39v-249q87 -86 113 -86v-15h-107q-19 0 -19 23q-48 -23 -314 -31q-18 8 -28 8v7l122 101v170l9 47q-9 13 -9 39v454q0 40 -122 124v8h112q82 0 206 -8q49 8 93 8q422 0 422 -264q0 -54 -66 -139q-95 -147 -412 -167q-5 6 -9 9zM309 1000h9q224 0 224 156
q0 155 -187 155h-37l-19 9v-294l-9 -17z" />
    <glyph glyph-name="q" unicode="q" horiz-adv-x="947" 
d="M429 1078h24q32 0 120 -100v-20q-96 -100 -96 -139h-24q-37 0 -143 159zM286 1137v-299q0 -218 191 -218q120 0 144 298v100q0 298 -192 298q-143 -50 -143 -179zM517 493q-29 -7 -64 -13q-400 0 -453 498q0 269 286 418q8 40 48 40h143q344 0 407 -398v-100
q0 -244 -167 -318q0 -32 -31 -58q116 -136 146 -172q118 -39 158 -86l-12 -8h-415l-6 8l35 102z" />
    <glyph glyph-name="r" unicode="r" horiz-adv-x="845" 
d="M-56 1436h112q98 0 206 -7q49 7 93 7q421 0 421 -265q0 -53 -65 -124q-92 -117 -187 -117v-8q112 -158 112 -211q75 -106 187 -179q0 -15 19 -15v-8q0 -21 -112 -31q-89 7 -169 7q-239 364 -271 390l9 -39v-249q87 -86 113 -86v-16h-188q-18 0 -18 24q-49 -24 -234 -31
q-18 7 -28 7v8l121 102v436l10 47q-10 13 -10 39v187q0 41 -121 125v7zM290 1312l9 -16v-265l19 8h37q187 0 187 140t-224 140h-9z" />
    <glyph glyph-name="s" unicode="s" horiz-adv-x="790" 
d="M157 1410q96 32 245 31q14 -3 27 -5q55 -19 163 -54q58 36 101 36v-344q-150 190 -264 230v-2h-3q-169 13 -168 -94q-25 -156 101 -196q177 -44 258 -119l-32 -66l56 41q45 -56 45 -126q6 -258 -301 -256q-168 -22 -284 48q-59 -36 -102 -36v344q178 -224 303 -236
q10 -1 19 -1q140 3 122 122q17 103 -139 162q-305 76 -317 309q1 58 25 102q49 22 69 56q26 24 74 24z" />
    <glyph glyph-name="t" unicode="t" horiz-adv-x="904" 
d="M10 1436q53 0 91 -8q253 8 403 8h222l50 -47q4 15 21 15l10 -15v-337h-21q-50 92 -50 125v32q-50 0 -101 109h-111v-399q0 -43 -10 -110q10 -13 10 -31q-10 -106 -10 -149q0 -68 141 -133v-16h-504v8q121 70 121 110q0 17 10 31q-10 86 -10 149v8q0 130 30 313
q-30 141 -30 219h-101q-36 -30 -161 -266h-10v329z" />
    <glyph glyph-name="u" unicode="u" horiz-adv-x="890" 
d="M564 960v373l-104 103h464q0 -8 -123 -103v-87q0 -37 -28 -55q28 -67 28 -95l-9 -176q-6 -228 -146 -300q0 -94 -229 -140q-342 0 -393 442q37 66 10 138v253q0 29 -85 95v31h57q9 0 9 -8l19 8h341l-105 -103v-23q0 -107 -18 -173q15 -21 18 -180h1v-122q0 -218 167 -218
q104 0 124 298v42h2z" />
    <glyph glyph-name="v" unicode="v" horiz-adv-x="907" 
d="M641 1357q-12 0 -76 63v16h96q39 0 75 8q37 -8 76 -8h95v-16q-127 -73 -161 -221l-190 -625v-8q76 -52 76 -71q-63 -24 -85 -24h-219q-85 320 -133 467l10 15v17q0 7 -10 7l10 16v32q0 32 -66 102q-48 222 -76 222q-105 72 -105 79q0 16 19 16q104 -8 104 -24
q35 16 76 16h133q22 0 38 8q17 -8 38 -8h57v-16q-19 0 -85 -71q0 -33 19 -79q-19 0 -19 -16q28 0 48 -110l37 -135l48 -214h9q57 183 109 359t52 203z" />
    <glyph glyph-name="w" unicode="w" horiz-adv-x="1394" 
d="M-30 1432h422q-10 -22 -69 -73q59 -137 59 -164l-19 8h-10q52 -107 108 -188q0 -20 19 -73h10l147 425q-8 0 -58 57v8h225v-32q0 -41 -19 -41q39 -80 39 -115h-20q57 -46 138 -302h10q0 60 137 319q10 0 10 16h-20q0 16 20 82q0 9 -59 65v8h284v-8q-88 -101 -176 -343
q-15 0 -30 -33q10 -16 10 -25q0 -24 -59 -98q0 -78 -167 -466h-9q-79 200 -108 335q-33 0 -108 229h-10q-65 -196 -118 -245l-10 -16l10 -41q-17 -52 -88 -147l10 -41q-20 -74 -40 -74l-255 654q10 16 10 25l-30 16l30 41q-39 41 -39 66h-10l-20 -9q0 87 -147 164v16z" />
    <glyph glyph-name="x" unicode="x" horiz-adv-x="903" 
d="M385 1078q32 52 108 152.5t76 125.5q-12 0 -68 60v14h112q39 0 99 8q37 -8 77 -8h94v-14q-127 -68 -161 -145q-426 -538 -458 -623t-32 -110q12 0 68 -60v-14h-135q-40 0 -76 -8q-37 8 -76 8h-95v14q127 68 161 145zM136 1238q0 30 -59 47q-19 70 -47 70q-105 67 -105 74
q0 15 19 15q105 -8 105 -22q34 14 76 14h156l38 8q18 -8 38 -8h57v-14q-18 0 -85 -67q0 -31 22 -59q-18 0 -18 -14q28 0 20 -40l29 -46q230 -318 332 -575q19 -70 47 -70q105 -67 105 -75q0 -14 -18 -14q-105 8 -105 22q-34 -14 -76 -14h-133q-21 0 -37 -8q-18 8 -39 8h-57
v14q19 0 85 67q0 31 -31 113l-30 76q-164 240 -289 498z" />
    <glyph glyph-name="y" unicode="y" horiz-adv-x="907" 
d="M474 476h-280l123 102v184q-77 168 -158 376l10 16v16q0 7 -10 7l10 16v32q0 31 -59 49q-19 75 -47 75q-105 72 -105 79q0 16 19 16q104 -8 104 -24q35 16 76 16h133q22 0 38 8q17 -8 38 -8h57v-16q-18 0 -85 -71q0 -33 19 -79q-19 0 -19 -16q28 0 55 -97l30 -81l24 -87
h10q56 56 108 198.5t52 169.5q-12 0 -68 63v16h112q39 0 75 8q37 -8 77 -8h94v-16q-127 -72 -161 -154l-209 -417l6 -223q0 -63 114 -134l8 -16h-163l-26 51z" />
    <glyph glyph-name="z" unicode="z" horiz-adv-x="808" 
d="M582 1435l168 1v-20q-88 -98 -113 -141l-334 -659q75 10 201 -6q204 244 219 244v-386q-97 0 -317 40q-109 -40 -317 -40h-122v20q88 97 113 140l109 229q35 39 81 62q-6 15 -42 21l156 335v19h-171q-204 -244 -219 -244v386q177 0 360 -20q118 16 198 19v-61z" />
    <glyph glyph-name="braceleft" unicode="{" horiz-adv-x="610" 
d="M507 1354q-179 -75 -179 -269v-648q0 -312 216 -327l4 -207q-6 -2 -11 -3q-500 0 -567 846q0 504 358 727q10 60 60 60q72 9 136 7l3 -187q-10 1 -20 1z" />
    <glyph glyph-name="bar" unicode="|" horiz-adv-x="587" 
d="M-40 1428h589l-153 -153v-519q-23 -84 -23 -94v-47q0 -51 23 -95q0 -25 -12 -129q12 -177 12 -260q106 -59 106 -129l-23 -12h-519v12l153 153v401q0 12 -12 12l12 23v613q0 94 -141 200z" />
    <glyph glyph-name="braceright" unicode="}" horiz-adv-x="610" 
d="M11 87q179 75 179 269v648q0 311 -216 327l-4 207q5 1 11 3q500 0 567 -846q0 -504 -358 -727q-10 -60 -60 -60q-72 -10 -136 -8l-3 187h20z" />
    <glyph glyph-name="asciitilde" unicode="~" horiz-adv-x="587" 
d="M-40 1428h589l-153 -153v-519q-23 -84 -23 -94v-47q0 -51 23 -95q0 -25 -12 -129q12 -177 12 -260q106 -59 106 -129l-23 -12h-519v12l153 153v401q0 12 -12 12l12 23v613q0 94 -141 200z" />
    </font>
</defs>
</svg>
